<mxfile host="app.diagrams.net" modified="2021-10-16T18:00:44.887Z" agent="5.0 (Windows NT 10.0; Win64; x64) AppleWebKit/537.36 (KHTML, like Gecko) Chrome/94.0.4606.61 Safari/537.36 OPR/80.0.4170.16" etag="ISi-Gxzhb1EofXvon4K8" version="15.5.4" type="github">
  <diagram id="C5RBs43oDa-KdzZeNtuy" name="Page-1">
    <mxGraphModel dx="1382" dy="805" grid="1" gridSize="10" guides="1" tooltips="1" connect="1" arrows="1" fold="1" page="1" pageScale="1" pageWidth="827" pageHeight="1169" math="0" shadow="0">
      <root>
        <mxCell id="WIyWlLk6GJQsqaUBKTNV-0" />
        <mxCell id="WIyWlLk6GJQsqaUBKTNV-1" parent="WIyWlLk6GJQsqaUBKTNV-0" />
        <mxCell id="qFZis3Wx3145tV4ZhqL6-2" style="edgeStyle=orthogonalEdgeStyle;rounded=0;orthogonalLoop=1;jettySize=auto;html=1;exitX=0.5;exitY=1;exitDx=0;exitDy=0;" edge="1" parent="WIyWlLk6GJQsqaUBKTNV-1" source="WIyWlLk6GJQsqaUBKTNV-3" target="qFZis3Wx3145tV4ZhqL6-1">
          <mxGeometry relative="1" as="geometry" />
        </mxCell>
        <mxCell id="WIyWlLk6GJQsqaUBKTNV-3" value="Inicio &lt;br&gt;Odenamiento Burbuja" style="rounded=1;whiteSpace=wrap;html=1;fontSize=12;glass=0;strokeWidth=1;shadow=0;" parent="WIyWlLk6GJQsqaUBKTNV-1" vertex="1">
          <mxGeometry x="268" y="90" width="120" height="40" as="geometry" />
        </mxCell>
        <mxCell id="WIyWlLk6GJQsqaUBKTNV-11" value="Fin&lt;br&gt;Ordenamiento Burbuja" style="rounded=1;whiteSpace=wrap;html=1;fontSize=12;glass=0;strokeWidth=1;shadow=0;" parent="WIyWlLk6GJQsqaUBKTNV-1" vertex="1">
          <mxGeometry x="255" y="930" width="120" height="40" as="geometry" />
        </mxCell>
        <mxCell id="qFZis3Wx3145tV4ZhqL6-4" style="edgeStyle=orthogonalEdgeStyle;rounded=0;orthogonalLoop=1;jettySize=auto;html=1;exitX=0.5;exitY=1;exitDx=0;exitDy=0;entryX=0.5;entryY=0;entryDx=0;entryDy=0;" edge="1" parent="WIyWlLk6GJQsqaUBKTNV-1" source="qFZis3Wx3145tV4ZhqL6-1" target="qFZis3Wx3145tV4ZhqL6-3">
          <mxGeometry relative="1" as="geometry" />
        </mxCell>
        <mxCell id="qFZis3Wx3145tV4ZhqL6-1" value="lista = 4, 3, 5, 2, 1, 6" style="rounded=0;whiteSpace=wrap;html=1;" vertex="1" parent="WIyWlLk6GJQsqaUBKTNV-1">
          <mxGeometry x="268" y="170" width="120" height="20" as="geometry" />
        </mxCell>
        <mxCell id="qFZis3Wx3145tV4ZhqL6-9" style="edgeStyle=orthogonalEdgeStyle;rounded=0;orthogonalLoop=1;jettySize=auto;html=1;exitX=0.5;exitY=1;exitDx=0;exitDy=0;entryX=0.5;entryY=0;entryDx=0;entryDy=0;" edge="1" parent="WIyWlLk6GJQsqaUBKTNV-1" source="qFZis3Wx3145tV4ZhqL6-3" target="qFZis3Wx3145tV4ZhqL6-5">
          <mxGeometry relative="1" as="geometry" />
        </mxCell>
        <mxCell id="qFZis3Wx3145tV4ZhqL6-3" value="N = lista.tamaÃ±o" style="rounded=0;whiteSpace=wrap;html=1;" vertex="1" parent="WIyWlLk6GJQsqaUBKTNV-1">
          <mxGeometry x="268" y="210" width="120" height="20" as="geometry" />
        </mxCell>
        <mxCell id="qFZis3Wx3145tV4ZhqL6-41" style="edgeStyle=orthogonalEdgeStyle;rounded=0;orthogonalLoop=1;jettySize=auto;html=1;exitX=1;exitY=0.5;exitDx=0;exitDy=0;" edge="1" parent="WIyWlLk6GJQsqaUBKTNV-1" source="qFZis3Wx3145tV4ZhqL6-5" target="WIyWlLk6GJQsqaUBKTNV-11">
          <mxGeometry relative="1" as="geometry">
            <mxPoint x="768" y="860" as="targetPoint" />
            <Array as="points">
              <mxPoint x="768" y="260" />
              <mxPoint x="768" y="850" />
              <mxPoint x="313" y="850" />
            </Array>
          </mxGeometry>
        </mxCell>
        <mxCell id="qFZis3Wx3145tV4ZhqL6-43" value="SALIDA" style="edgeLabel;html=1;align=center;verticalAlign=middle;resizable=0;points=[];" vertex="1" connectable="0" parent="qFZis3Wx3145tV4ZhqL6-41">
          <mxGeometry x="-0.9469" y="-1" relative="1" as="geometry">
            <mxPoint as="offset" />
          </mxGeometry>
        </mxCell>
        <mxCell id="qFZis3Wx3145tV4ZhqL6-42" value="REPITE" style="edgeStyle=orthogonalEdgeStyle;rounded=0;orthogonalLoop=1;jettySize=auto;html=1;exitX=0.5;exitY=1;exitDx=0;exitDy=0;" edge="1" parent="WIyWlLk6GJQsqaUBKTNV-1" source="qFZis3Wx3145tV4ZhqL6-5" target="qFZis3Wx3145tV4ZhqL6-7">
          <mxGeometry relative="1" as="geometry" />
        </mxCell>
        <mxCell id="qFZis3Wx3145tV4ZhqL6-5" value="i = 1 ... N" style="shape=hexagon;perimeter=hexagonPerimeter2;whiteSpace=wrap;html=1;fixedSize=1;" vertex="1" parent="WIyWlLk6GJQsqaUBKTNV-1">
          <mxGeometry x="268" y="250" width="120" height="20" as="geometry" />
        </mxCell>
        <mxCell id="qFZis3Wx3145tV4ZhqL6-11" style="edgeStyle=orthogonalEdgeStyle;rounded=0;orthogonalLoop=1;jettySize=auto;html=1;exitX=0.5;exitY=1;exitDx=0;exitDy=0;entryX=0.5;entryY=0;entryDx=0;entryDy=0;" edge="1" parent="WIyWlLk6GJQsqaUBKTNV-1" source="qFZis3Wx3145tV4ZhqL6-7" target="qFZis3Wx3145tV4ZhqL6-8">
          <mxGeometry relative="1" as="geometry">
            <mxPoint x="320" y="340" as="sourcePoint" />
            <Array as="points">
              <mxPoint x="320" y="340" />
            </Array>
          </mxGeometry>
        </mxCell>
        <mxCell id="qFZis3Wx3145tV4ZhqL6-7" value="a = 0" style="rounded=0;whiteSpace=wrap;html=1;" vertex="1" parent="WIyWlLk6GJQsqaUBKTNV-1">
          <mxGeometry x="268" y="320" width="120" height="20" as="geometry" />
        </mxCell>
        <mxCell id="qFZis3Wx3145tV4ZhqL6-23" style="edgeStyle=orthogonalEdgeStyle;rounded=0;orthogonalLoop=1;jettySize=auto;html=1;exitX=0.5;exitY=1;exitDx=0;exitDy=0;" edge="1" parent="WIyWlLk6GJQsqaUBKTNV-1" source="qFZis3Wx3145tV4ZhqL6-8" target="qFZis3Wx3145tV4ZhqL6-12">
          <mxGeometry relative="1" as="geometry" />
        </mxCell>
        <mxCell id="qFZis3Wx3145tV4ZhqL6-8" value="inicial = lista.posicion(a)" style="rounded=0;whiteSpace=wrap;html=1;" vertex="1" parent="WIyWlLk6GJQsqaUBKTNV-1">
          <mxGeometry x="240" y="360" width="160" height="20" as="geometry" />
        </mxCell>
        <mxCell id="qFZis3Wx3145tV4ZhqL6-36" value="IREPITE" style="edgeStyle=orthogonalEdgeStyle;rounded=0;orthogonalLoop=1;jettySize=auto;html=1;exitX=0.5;exitY=1;exitDx=0;exitDy=0;" edge="1" parent="WIyWlLk6GJQsqaUBKTNV-1" source="qFZis3Wx3145tV4ZhqL6-12" target="qFZis3Wx3145tV4ZhqL6-13">
          <mxGeometry relative="1" as="geometry" />
        </mxCell>
        <mxCell id="qFZis3Wx3145tV4ZhqL6-40" style="edgeStyle=orthogonalEdgeStyle;rounded=0;orthogonalLoop=1;jettySize=auto;html=1;exitX=0;exitY=0.5;exitDx=0;exitDy=0;entryX=0;entryY=0.5;entryDx=0;entryDy=0;" edge="1" parent="WIyWlLk6GJQsqaUBKTNV-1" source="qFZis3Wx3145tV4ZhqL6-12" target="qFZis3Wx3145tV4ZhqL6-5">
          <mxGeometry relative="1" as="geometry">
            <Array as="points">
              <mxPoint x="138" y="420" />
              <mxPoint x="138" y="260" />
            </Array>
          </mxGeometry>
        </mxCell>
        <mxCell id="qFZis3Wx3145tV4ZhqL6-44" value="CONTINUA" style="edgeLabel;html=1;align=center;verticalAlign=middle;resizable=0;points=[];" vertex="1" connectable="0" parent="qFZis3Wx3145tV4ZhqL6-40">
          <mxGeometry x="0.7412" y="-2" relative="1" as="geometry">
            <mxPoint as="offset" />
          </mxGeometry>
        </mxCell>
        <mxCell id="qFZis3Wx3145tV4ZhqL6-45" value="SALIDA" style="edgeLabel;html=1;align=center;verticalAlign=middle;resizable=0;points=[];" vertex="1" connectable="0" parent="qFZis3Wx3145tV4ZhqL6-40">
          <mxGeometry x="-0.8202" y="1" relative="1" as="geometry">
            <mxPoint as="offset" />
          </mxGeometry>
        </mxCell>
        <mxCell id="qFZis3Wx3145tV4ZhqL6-12" value="j = (i + 1) ... N" style="shape=hexagon;perimeter=hexagonPerimeter2;whiteSpace=wrap;html=1;fixedSize=1;" vertex="1" parent="WIyWlLk6GJQsqaUBKTNV-1">
          <mxGeometry x="260" y="410" width="120" height="20" as="geometry" />
        </mxCell>
        <mxCell id="qFZis3Wx3145tV4ZhqL6-25" style="edgeStyle=orthogonalEdgeStyle;rounded=0;orthogonalLoop=1;jettySize=auto;html=1;exitX=0.5;exitY=1;exitDx=0;exitDy=0;entryX=0.5;entryY=0;entryDx=0;entryDy=0;" edge="1" parent="WIyWlLk6GJQsqaUBKTNV-1" source="qFZis3Wx3145tV4ZhqL6-13" target="qFZis3Wx3145tV4ZhqL6-14">
          <mxGeometry relative="1" as="geometry" />
        </mxCell>
        <mxCell id="qFZis3Wx3145tV4ZhqL6-13" value="capturado = lista.posicion(a + 1)" style="rounded=0;whiteSpace=wrap;html=1;" vertex="1" parent="WIyWlLk6GJQsqaUBKTNV-1">
          <mxGeometry x="210" y="475" width="220" height="20" as="geometry" />
        </mxCell>
        <mxCell id="qFZis3Wx3145tV4ZhqL6-26" style="edgeStyle=orthogonalEdgeStyle;rounded=0;orthogonalLoop=1;jettySize=auto;html=1;exitX=1;exitY=0.5;exitDx=0;exitDy=0;" edge="1" parent="WIyWlLk6GJQsqaUBKTNV-1" source="qFZis3Wx3145tV4ZhqL6-14" target="qFZis3Wx3145tV4ZhqL6-16">
          <mxGeometry relative="1" as="geometry" />
        </mxCell>
        <mxCell id="qFZis3Wx3145tV4ZhqL6-47" value="SI" style="edgeLabel;html=1;align=center;verticalAlign=middle;resizable=0;points=[];" vertex="1" connectable="0" parent="qFZis3Wx3145tV4ZhqL6-26">
          <mxGeometry x="-0.6195" y="2" relative="1" as="geometry">
            <mxPoint as="offset" />
          </mxGeometry>
        </mxCell>
        <mxCell id="qFZis3Wx3145tV4ZhqL6-29" style="edgeStyle=orthogonalEdgeStyle;rounded=0;orthogonalLoop=1;jettySize=auto;html=1;exitX=0;exitY=0.5;exitDx=0;exitDy=0;" edge="1" parent="WIyWlLk6GJQsqaUBKTNV-1" source="qFZis3Wx3145tV4ZhqL6-14" target="qFZis3Wx3145tV4ZhqL6-20">
          <mxGeometry relative="1" as="geometry" />
        </mxCell>
        <mxCell id="qFZis3Wx3145tV4ZhqL6-48" value="NO" style="edgeLabel;html=1;align=center;verticalAlign=middle;resizable=0;points=[];" vertex="1" connectable="0" parent="qFZis3Wx3145tV4ZhqL6-29">
          <mxGeometry x="-0.6039" y="1" relative="1" as="geometry">
            <mxPoint as="offset" />
          </mxGeometry>
        </mxCell>
        <mxCell id="qFZis3Wx3145tV4ZhqL6-14" value="inicial &amp;gt; capturado" style="rhombus;whiteSpace=wrap;html=1;" vertex="1" parent="WIyWlLk6GJQsqaUBKTNV-1">
          <mxGeometry x="280" y="515" width="80" height="80" as="geometry" />
        </mxCell>
        <mxCell id="qFZis3Wx3145tV4ZhqL6-27" style="edgeStyle=orthogonalEdgeStyle;rounded=0;orthogonalLoop=1;jettySize=auto;html=1;" edge="1" parent="WIyWlLk6GJQsqaUBKTNV-1" source="qFZis3Wx3145tV4ZhqL6-16" target="qFZis3Wx3145tV4ZhqL6-18">
          <mxGeometry relative="1" as="geometry" />
        </mxCell>
        <mxCell id="qFZis3Wx3145tV4ZhqL6-16" value="lista.ajustar(a, capturado)" style="rounded=0;whiteSpace=wrap;html=1;" vertex="1" parent="WIyWlLk6GJQsqaUBKTNV-1">
          <mxGeometry x="417" y="615" width="183" height="20" as="geometry" />
        </mxCell>
        <mxCell id="qFZis3Wx3145tV4ZhqL6-28" style="edgeStyle=orthogonalEdgeStyle;rounded=0;orthogonalLoop=1;jettySize=auto;html=1;" edge="1" parent="WIyWlLk6GJQsqaUBKTNV-1" source="qFZis3Wx3145tV4ZhqL6-18" target="qFZis3Wx3145tV4ZhqL6-19">
          <mxGeometry relative="1" as="geometry" />
        </mxCell>
        <mxCell id="qFZis3Wx3145tV4ZhqL6-18" value="lista.ajustar(a + 1, inicial)" style="rounded=0;whiteSpace=wrap;html=1;" vertex="1" parent="WIyWlLk6GJQsqaUBKTNV-1">
          <mxGeometry x="417" y="660" width="183" height="20" as="geometry" />
        </mxCell>
        <mxCell id="qFZis3Wx3145tV4ZhqL6-33" style="edgeStyle=orthogonalEdgeStyle;rounded=0;orthogonalLoop=1;jettySize=auto;html=1;entryX=1;entryY=0.5;entryDx=0;entryDy=0;" edge="1" parent="WIyWlLk6GJQsqaUBKTNV-1" source="qFZis3Wx3145tV4ZhqL6-19" target="qFZis3Wx3145tV4ZhqL6-31">
          <mxGeometry relative="1" as="geometry">
            <Array as="points">
              <mxPoint x="509" y="790" />
            </Array>
          </mxGeometry>
        </mxCell>
        <mxCell id="qFZis3Wx3145tV4ZhqL6-19" value="a = a + 1" style="rounded=0;whiteSpace=wrap;html=1;" vertex="1" parent="WIyWlLk6GJQsqaUBKTNV-1">
          <mxGeometry x="448.5" y="705" width="120" height="20" as="geometry" />
        </mxCell>
        <mxCell id="qFZis3Wx3145tV4ZhqL6-30" value="" style="edgeStyle=orthogonalEdgeStyle;rounded=0;orthogonalLoop=1;jettySize=auto;html=1;" edge="1" parent="WIyWlLk6GJQsqaUBKTNV-1" source="qFZis3Wx3145tV4ZhqL6-20" target="qFZis3Wx3145tV4ZhqL6-22">
          <mxGeometry relative="1" as="geometry" />
        </mxCell>
        <mxCell id="qFZis3Wx3145tV4ZhqL6-20" value="a = a + 1" style="rounded=0;whiteSpace=wrap;html=1;" vertex="1" parent="WIyWlLk6GJQsqaUBKTNV-1">
          <mxGeometry x="110" y="615" width="120" height="20" as="geometry" />
        </mxCell>
        <mxCell id="qFZis3Wx3145tV4ZhqL6-32" style="edgeStyle=orthogonalEdgeStyle;rounded=0;orthogonalLoop=1;jettySize=auto;html=1;exitX=0.5;exitY=1;exitDx=0;exitDy=0;entryX=0;entryY=0.5;entryDx=0;entryDy=0;" edge="1" parent="WIyWlLk6GJQsqaUBKTNV-1" source="qFZis3Wx3145tV4ZhqL6-22" target="qFZis3Wx3145tV4ZhqL6-31">
          <mxGeometry relative="1" as="geometry" />
        </mxCell>
        <mxCell id="qFZis3Wx3145tV4ZhqL6-22" value="inicial = lista.posicion(a)" style="rounded=0;whiteSpace=wrap;html=1;" vertex="1" parent="WIyWlLk6GJQsqaUBKTNV-1">
          <mxGeometry x="60" y="665" width="220" height="20" as="geometry" />
        </mxCell>
        <mxCell id="qFZis3Wx3145tV4ZhqL6-37" style="edgeStyle=orthogonalEdgeStyle;rounded=0;orthogonalLoop=1;jettySize=auto;html=1;entryX=1;entryY=0.5;entryDx=0;entryDy=0;exitX=0;exitY=1;exitDx=0;exitDy=0;" edge="1" parent="WIyWlLk6GJQsqaUBKTNV-1" source="qFZis3Wx3145tV4ZhqL6-31" target="qFZis3Wx3145tV4ZhqL6-12">
          <mxGeometry relative="1" as="geometry">
            <mxPoint x="315" y="820" as="sourcePoint" />
            <Array as="points">
              <mxPoint x="315" y="793" />
              <mxPoint x="315" y="830" />
              <mxPoint x="680" y="830" />
              <mxPoint x="680" y="420" />
            </Array>
          </mxGeometry>
        </mxCell>
        <mxCell id="qFZis3Wx3145tV4ZhqL6-46" value="CONTINUA" style="edgeLabel;html=1;align=center;verticalAlign=middle;resizable=0;points=[];" vertex="1" connectable="0" parent="qFZis3Wx3145tV4ZhqL6-37">
          <mxGeometry x="0.9103" relative="1" as="geometry">
            <mxPoint as="offset" />
          </mxGeometry>
        </mxCell>
        <mxCell id="qFZis3Wx3145tV4ZhqL6-31" value="" style="ellipse;whiteSpace=wrap;html=1;aspect=fixed;" vertex="1" parent="WIyWlLk6GJQsqaUBKTNV-1">
          <mxGeometry x="310" y="785" width="10" height="10" as="geometry" />
        </mxCell>
      </root>
    </mxGraphModel>
  </diagram>
</mxfile>
